<?xml version="1.0" encoding="utf-8"?>
<!-- Generator: Adobe Illustrator 27.0.0, SVG Export Plug-In . SVG Version: 6.00 Build 0)  -->
<svg version="1.1" id="Layer_1" xmlns="http://www.w3.org/2000/svg" xmlns:xlink="http://www.w3.org/1999/xlink" x="0px" y="0px"
	 viewBox="0 0 512 512" style="enable-background:new 0 0 512 512;" xml:space="preserve">
<style type="text/css">
	.st0{fill:#006991;}
	.st1{fill:#FFFFFF;}
</style>
<g>
	<g>
		<g>
			<polygon points="323.09,275.18 372.14,292.11 367.82,299.64 319.25,281.86 			"/>
			<polygon points="327.45,267.63 379.85,278.73 375.38,286.49 323.63,274.28 			"/>
			<polygon points="331.71,260.34 387.63,265.28 383,273.37 327.98,266.74 			"/>
			<polygon points="393.01,256 390.53,260.28 332.22,259.45 336.66,251.75 390.53,251.75 			"/>
			<polygon points="364.49,305.4 318.75,282.75 314.94,289.27 360.21,312.8 			"/>
			<polygon points="356.85,318.62 314.41,290.18 310.59,296.79 352.55,326.04 			"/>
			<polygon points="272.38,324.09 282.48,374.8 273.79,374.8 264.61,324.09 			"/>
			<polygon points="297.95,374.8 289.01,374.8 273.41,324.09 281.22,324.09 			"/>
			<polygon points="289.98,324.09 313.56,374.8 304.22,374.8 282.26,324.09 			"/>
			<polygon points="294.79,324.09 296.95,320.36 326.83,370.61 324.39,374.8 319.41,374.8 291.02,324.09 			"/>
			<polygon points="297.49,319.43 301.31,312.86 334.25,357.72 329.61,365.81 			"/>
			<polygon points="301.82,311.94 305.66,305.29 341.76,344.78 337.25,352.53 			"/>
			<polygon points="344.93,339.29 306.21,304.43 310.09,297.7 349.28,331.74 			"/>
			<polygon points="255.91,324.09 258.57,374.8 267.12,374.8 263.61,324.09 			"/>
			<polygon points="243.34,374.8 251.88,374.8 254.85,324.09 247.13,324.09 			"/>
			<polygon points="213.65,319.86 181.96,365.72 177.51,358.02 209.91,313.32 211.8,316.59 			"/>
			<polygon points="219.6,324.09 192.05,374.8 187.21,374.8 184.72,370.47 214.17,320.75 216.15,324.09 			"/>
			<polygon points="228.55,324.09 206.86,374.8 197.52,374.8 220.68,324.09 			"/>
			<polygon points="237.37,324.09 221.71,374.8 212.81,374.8 229.59,324.09 			"/>
			<polygon points="246.11,324.09 236.75,374.8 228.07,374.8 238.4,324.09 			"/>
			<polygon points="213.95,320.31 211.8,316.59 216.15,324.09 			"/>
			<polygon points="169.43,344.08 173.41,351.02 209.41,312.45 206.06,306.67 205.42,305.53 			"/>
			<polygon points="205.42,305.53 206.06,306.67 205.42,305.53 			"/>
			<polygon points="162.01,331.27 165.66,337.53 204.91,304.65 201.3,298.4 			"/>
			<rect x="203.1" y="297.92" width="0" height="7.21"/>
			<polygon points="154.58,318.29 157.91,324.03 200.42,296.89 197.08,291.1 			"/>
			<rect x="198.75" y="290.65" width="0" height="6.69"/>
			<polygon points="147.04,305.26 150.12,310.59 195.94,289.11 194.37,286.43 192.82,283.8 			"/>
			<polygon points="192.82,283.8 194.37,286.43 192.82,283.8 			"/>
			<polygon points="139.45,292.11 142.32,297.1 191.48,281.38 189.47,277.91 188.57,276.41 			"/>
			<polygon points="188.57,276.41 189.47,277.91 188.57,276.41 			"/>
			<polygon points="184.26,268.87 132.14,279.4 134.86,284.1 187.01,273.67 185.74,271.46 			"/>
			<polygon points="185.74,271.46 187.01,273.67 187.01,273.67 			"/>
			<polygon points="179.97,261.43 125.12,267.21 127.71,271.71 182.52,265.92 181.3,263.74 			"/>
			<polygon points="181.3,263.74 182.52,265.92 182.52,265.92 			"/>
			<polygon points="119.84,253.87 119.84,253.87 118.6,256 119.84,258.15 178.05,258.15 176.81,256 178.05,253.87 			"/>
			<polygon points="173.19,162.2 171.46,165.17 206.94,204.31 208.7,201.3 			"/>
			<polygon points="127.6,240.43 125.01,244.96 180,250.56 182.6,246.07 			"/>
			<polygon points="135.14,227.39 132.79,231.46 184.58,242.69 186.97,238.61 			"/>
			<polygon points="142.71,214.3 140.53,218.04 189.08,234.87 189.15,234.87 191.33,231.15 			"/>
			<polygon points="150.27,201.16 148.26,204.69 193.63,227.13 195.67,223.66 			"/>
			<polygon points="157.82,188.11 155.95,191.36 198.13,219.49 200.02,216.18 			"/>
			<polygon points="165.44,175.06 165.39,175.02 163.61,178.12 202.33,211.67 202.54,211.85 204.36,208.79 			"/>
			<polygon points="180.61,148.95 180.51,148.86 178.81,151.76 211.02,196.42 211.3,196.8 213,193.9 			"/>
			<polygon points="188.84,137.2 187.21,137.2 186.4,138.62 215.65,189.35 217.3,186.55 			"/>
			<polygon points="217.3,186.55 215.65,189.35 215.68,189.35 			"/>
		</g>
		<g>
			<g>
				<g>
					<polygon points="455.42,256 454.63,254.58 392.19,254.58 393.01,256 392.19,257.38 454.63,257.38 					"/>
					<polygon points="445.16,238.26 443.48,235.31 384.44,240.9 383.88,240.92 385.58,243.86 444.63,238.3 					"/>
					<polygon points="434.1,219.08 432.38,216.02 376.55,227.25 376.06,227.39 377.8,230.39 433.62,219.17 					"/>
					<polygon points="423.03,199.89 421.22,196.78 368.72,213.85 368.29,213.95 370.1,217.07 422.64,200.02 					"/>
					<polygon points="410.12,177.49 360.6,200.6 362.46,203.83 412,180.78 					"/>
					<polygon points="400.97,161.67 398.96,158.2 353.21,187.13 352.93,187.33 354.96,190.79 400.68,161.83 					"/>
					<polygon points="387.78,138.84 345.31,174.13 347.5,177.87 389.95,142.6 					"/>
					<polygon points="376.63,119.48 337.78,161.08 340.12,165.11 378.95,123.54 					"/>
					<polygon points="365.4,100.07 330.28,148.08 332.86,152.54 367.99,104.54 					"/>
				</g>
				<polygon points="324.39,137.2 325.68,139.42 356.67,85.63 355.41,83.48 352.98,83.48 322.08,137.2 				"/>
				<polygon points="311.93,137.2 335.88,83.48 330.7,83.48 306.78,137.2 				"/>
				<polygon points="296.93,137.2 313.9,83.48 308.43,83.48 291.46,137.2 				"/>
				<polygon points="281.86,137.2 291.89,83.48 286.14,83.48 276.08,137.2 				"/>
				<polygon points="266.82,137.2 269.97,83.48 263.8,83.48 260.66,137.2 				"/>
				<polygon points="251.81,137.2 248.07,83.48 241.44,83.48 245.15,137.2 				"/>
				<polygon points="236.83,137.2 226.25,83.48 219.01,83.48 229.57,137.2 				"/>
				<polygon points="221.89,137.2 204.46,83.48 196.5,83.48 213.92,137.2 				"/>
				<polygon points="206.99,137.2 182.77,83.48 173.95,83.48 198.16,137.2 				"/>
				<polygon points="187.21,137.2 192.15,137.2 161.12,83.48 156.21,83.48 153.74,87.72 184.75,141.51 				"/>
				<polygon points="182.08,146.08 147.46,98.6 142.8,106.66 177.45,154.2 				"/>
				<polygon points="166.86,172.45 125.16,137.2 120.84,144.71 162.54,179.94 				"/>
				<polygon points="159.23,185.66 114.1,156.41 109.79,163.81 154.98,193.03 				"/>
				<polygon points="151.64,198.87 103.02,175.6 98.75,183 147.34,206.21 				"/>
				<polygon points="144,212.05 91.99,194.71 87.66,202.22 139.65,219.6 				"/>
				<polygon points="136.38,225.29 80.98,213.75 76.53,221.56 131.88,233.02 				"/>
				<polygon points="128.74,238.5 70,232.76 65.31,240.9 124.06,246.6 				"/>
				<polygon points="118.6,256 121.08,251.75 59.04,251.75 56.58,256 59.04,260.21 121.08,260.21 				"/>
				<polygon points="123.51,264.47 65.18,270.91 70.11,279.4 128.44,273 				"/>
				<polygon points="130.91,277.3 76.21,290.01 81.19,298.6 135.86,285.86 				"/>
				<polygon points="138.36,290.18 87.24,309.11 92.26,317.78 143.4,298.92 				"/>
				<polygon points="145.82,303.1 98.23,328.13 103.44,337.13 151.06,312.14 				"/>
				<polygon points="153.31,316.09 109.14,347.05 114.61,356.5 158.77,325.54 				"/>
				<polygon points="160.84,329.07 120.06,365.95 125.88,376.01 166.64,339.13 				"/>
				<polygon points="168.37,342.12 130.91,384.75 137.17,395.59 174.59,352.96 				"/>
				<polygon points="175.89,355.19 141.73,403.45 148.51,415.22 182.66,366.92 				"/>
				<polygon points="187.21,374.8 183.44,368.3 152.5,422.12 156.21,428.52 163.58,428.52 194.41,374.8 				"/>
				<polygon points="173.19,162.2 174.9,159.23 136.56,117.71 136.26,117.35 131.43,125.68 169.76,167.25 170.07,167.59 
					171.46,165.17 171.46,165.17 173.19,162.2 				"/>
			</g>
		</g>
	</g>
</g>
</svg>
